<svg version="1.2" baseProfile="tiny-ps" xmlns="http://www.w3.org/2000/svg" viewBox="0 0 1116 1616" width="1116" height="1616">
	<title>logo_finwise-svg</title>
	<style>
		tspan { white-space:pre }
		.shp0 { fill: #ffffff } 
	</style>
	<g id="#4067aaff">
		<path id="Layer" fill-rule="evenodd" class="shp0" d="M188.26 161.72C276.61 67.56 400.99 6.83 530.57 1.48C655.72 -5.87 783.16 36.05 878.7 117.36C895.3 131.35 909.91 148.03 928.42 159.65C963 153.23 995.2 138.24 1028.25 126.61C1003.39 149.86 973.17 175.49 969.2 211.13C1001.02 265.9 1033.15 321.81 1046.68 384.45C1061.75 443.12 1062.37 504.16 1059.69 564.28C1078.12 562.21 1096.64 560.61 1115.22 559.23C1084.78 911.69 931.48 1247.39 703.68 1516.02C698.1 1507.07 692.36 1498.2 686.39 1489.56C642.56 1530.94 603.4 1577.52 556.05 1615.38C510.68 1573.46 467.92 1528.72 428.83 1480.84C424.4 1492 420.04 1503.09 415.68 1514.26C192.77 1243.03 34.2 911.15 0.31 559.31C18.44 560.61 36.49 562.14 54.62 563.89C43.91 439.22 75.04 310.87 149.09 209.22C135.86 177.02 113.98 149.71 87.59 127.38C120.94 139.38 154.45 150.93 188.26 161.72ZM239.28 179.54C292.67 199.96 349.97 213.58 396.48 248.23C470.68 299.86 506.86 385.68 557.19 457.58C604.62 389.81 637.67 308.81 705.67 257.94C754.93 218.09 817.51 202.64 875.79 181.07C776.96 82.25 630.32 33.37 492.1 54.86C397.17 68.1 308.66 113.99 239.28 179.54ZM288.24 270.94C232.55 285.94 219.16 368.24 267.12 400.13C308.58 433.33 377.51 404.19 382.86 351.64C392.65 300.62 337.27 253.2 288.24 270.94ZM792.19 268.73C739.33 275.61 711.33 346.13 747.05 386.44C777.8 429.35 851.39 420.1 870.98 371.3C897.6 321.35 846.8 256.79 792.19 268.73ZM948.92 493.6C900.96 561.06 804.2 585.16 729.69 550.05C687.23 532 656.79 495.21 636.06 455.13C609.82 492.3 583.89 529.7 556.96 566.42C531.03 529.09 504.49 492.22 478.71 454.82C458.74 493.45 429.98 529.17 389.82 547.76C314.78 585.85 214.88 562.67 165.84 493.83C131.42 450.69 127.06 393.48 130.35 340.55C122.39 377.11 110.46 412.83 106.64 450.16C101.89 493.98 104.42 538.12 105.8 582.02C218.7 639.62 298.56 745.02 354.79 855.93C440.92 1029.4 481.31 1230.11 446.05 1422.17C481.23 1465.69 517.8 1508.22 557.12 1548.15C597.43 1509.67 635.68 1469.21 670.41 1425.61C655.26 1356.85 653.19 1285.94 658.24 1215.88C672.24 1054.03 725.48 894.48 816.66 759.63C866.39 687.04 930.03 621.87 1009.2 581.95C1011.11 532 1014.1 481.59 1005.61 432.03C999.79 396.08 987.32 361.81 977.3 327.01C990.92 383.31 985.79 446.87 948.92 493.6Z" />
	</g>
	<g id="#bcbcbaff">
	</g>
</svg>